<svg xmlns="http://www.w3.org/2000/svg" xmlns:xlink="http://www.w3.org/1999/xlink" width="500" zoomAndPan="magnify" viewBox="0 0 375 374.999991" height="500" preserveAspectRatio="xMidYMid meet" version="1.0"><defs><g/><clipPath id="7fa1cb75c5"><path d="M 272.238281 209.203125 L 292.488281 209.203125 L 292.488281 229.453125 L 272.238281 229.453125 Z M 272.238281 209.203125 " clip-rule="nonzero"/></clipPath><clipPath id="9680f36b9d"><path d="M 1 0.238281 L 49 0.238281 L 49 66 L 1 66 Z M 1 0.238281 " clip-rule="nonzero"/></clipPath><clipPath id="8c557ae362"><rect x="0" width="50" y="0" height="78"/></clipPath><clipPath id="6beeb044fd"><path d="M 1 0.480469 L 46 0.480469 L 46 66 L 1 66 Z M 1 0.480469 " clip-rule="nonzero"/></clipPath><clipPath id="c5fa871e93"><rect x="0" width="48" y="0" height="79"/></clipPath><clipPath id="4106916f48"><rect x="0" width="63" y="0" height="88"/></clipPath><clipPath id="8372d8fe48"><rect x="0" width="51" y="0" height="80"/></clipPath><clipPath id="b4189728da"><path d="M 123 9 L 164.761719 9 L 164.761719 57 L 123 57 Z M 123 9 " clip-rule="nonzero"/></clipPath><clipPath id="fe1c8b66e8"><rect x="0" width="165" y="0" height="72"/></clipPath></defs><path fill="#ffffff" d="M 188.726562 105.324219 C 204.117188 105.324219 217.699219 112.765625 226.101562 124.203125 C 226.652344 124.984375 227.4375 125.300781 228.378906 125.222656 C 242.042969 123.261719 268.34375 120.597656 270.78125 129.527344 C 272.191406 134.855469 263.714844 141.90625 248.871094 148.957031 C 245.023438 150.757812 240.785156 152.558594 236.230469 154.4375 C 235.367188 154.75 234.816406 155.457031 234.738281 156.398438 C 232.226562 179.503906 212.59375 197.519531 188.726562 197.519531 C 173.414062 197.519531 159.828125 190.078125 151.425781 178.644531 C 150.878906 177.9375 150.09375 177.546875 149.152344 177.703125 C 135.488281 179.660156 109.183594 182.324219 106.75 173.316406 C 105.335938 167.988281 113.816406 160.941406 128.65625 153.890625 C 132.425781 152.167969 136.664062 150.285156 141.296875 148.484375 C 142.164062 148.09375 142.710938 147.390625 142.789062 146.527344 C 145.222656 123.339844 164.933594 105.324219 188.726562 105.324219 Z M 204.195312 140.574219 C 205.527344 138.144531 208.589844 137.363281 210.945312 138.773438 C 208.589844 137.363281 207.726562 134.386719 209.140625 132.035156 C 207.726562 134.386719 204.742188 135.167969 202.386719 133.835938 C 204.742188 135.167969 205.527344 138.144531 204.195312 140.574219 Z M 209.925781 129.609375 C 211.261719 127.257812 214.324219 126.472656 216.679688 127.804688 C 214.324219 126.472656 213.460938 123.417969 214.871094 121.070312 C 213.460938 123.417969 210.476562 124.28125 208.121094 122.871094 C 210.476562 124.28125 211.261719 127.257812 209.925781 129.609375 Z M 191.082031 131.097656 C 193.828125 126.316406 199.875 124.75 204.664062 127.492188 C 199.875 124.75 198.304688 118.640625 201.054688 113.941406 C 198.304688 118.640625 192.179688 120.285156 187.46875 117.542969 C 192.179688 120.285156 193.828125 126.316406 191.082031 131.097656 Z M 231.125 132.898438 C 232.304688 135.71875 233.324219 138.695312 233.953125 141.671875 C 234.109375 142.375 234.503906 142.921875 235.132812 143.316406 C 235.757812 143.628906 236.386719 143.707031 237.09375 143.472656 C 241.335938 141.90625 245.574219 140.261719 249.734375 138.378906 C 249.734375 138.300781 249.816406 138.300781 249.816406 138.300781 L 257.589844 135.246094 C 251.226562 139.242188 241.804688 143.550781 234.738281 146.449219 C 221.074219 151.933594 204.273438 157.335938 191.238281 160.703125 C 181.578125 163.210938 172.628906 165.328125 162.890625 167.207031 C 162.890625 167.207031 162.890625 167.285156 162.890625 167.285156 L 151.507812 169.242188 C 151.507812 169.242188 151.507812 169.242188 151.429688 169.242188 C 141.613281 170.808594 129.207031 172.21875 120.253906 171.75 C 120.253906 171.75 131.167969 170.886719 142.949219 168.773438 C 143.652344 168.695312 144.203125 168.304688 144.597656 167.675781 C 144.910156 167.050781 144.988281 166.421875 144.832031 165.71875 C 143.8125 162.742188 143.183594 159.6875 142.789062 156.554688 C 142.710938 155.769531 142.320312 155.144531 141.613281 154.75 C 140.984375 154.359375 140.199219 154.28125 139.492188 154.59375 C 129.128906 158.980469 110.441406 167.832031 111.617188 172.0625 C 112.953125 176.996094 139.964844 174.019531 149.621094 172.53125 C 172.3125 169.164062 199.246094 162.273438 220.917969 154.75 C 229.554688 151.773438 238.585938 148.25 246.753906 144.414062 C 259.238281 138.457031 266.617188 133.523438 265.910156 130.78125 C 264.734375 126.550781 244.160156 128.199219 233.011719 129.609375 C 232.226562 129.6875 231.597656 130.15625 231.207031 130.78125 C 230.8125 131.488281 230.8125 132.191406 231.125 132.898438 Z M 231.125 132.898438 " fill-opacity="1" fill-rule="evenodd"/><g clip-path="url(#7fa1cb75c5)"><path fill="#100a09" d="M 292.5625 218.683594 C 292.550781 218.6875 292.539062 218.6875 292.53125 218.691406 C 292.285156 218.769531 292.011719 218.800781 291.761719 218.855469 C 291.222656 218.96875 290.679688 219.085938 290.140625 219.199219 C 288.894531 219.464844 287.648438 219.730469 286.398438 219.992188 C 287.660156 220.777344 288.921875 221.558594 290.183594 222.34375 C 290.753906 222.695312 291.324219 223.050781 291.894531 223.402344 C 291.9375 223.429688 291.960938 223.496094 291.929688 223.542969 C 291.386719 224.335938 290.847656 225.132812 290.308594 225.929688 C 290.277344 225.972656 290.214844 225.996094 290.167969 225.964844 C 290.160156 225.957031 290.148438 225.953125 290.140625 225.945312 C 289.910156 225.824219 289.695312 225.660156 289.480469 225.519531 C 289.019531 225.21875 288.554688 224.917969 288.09375 224.617188 C 287.054688 223.941406 286.019531 223.269531 284.980469 222.59375 C 285.394531 223.996094 285.804688 225.394531 286.21875 226.792969 C 286.40625 227.4375 286.597656 228.078125 286.785156 228.722656 C 286.800781 228.773438 286.765625 228.832031 286.714844 228.847656 C 285.78125 229.082031 284.847656 229.3125 283.914062 229.546875 C 283.863281 229.558594 283.804688 229.53125 283.792969 229.476562 C 283.789062 229.464844 283.785156 229.453125 283.78125 229.441406 C 283.695312 229.199219 283.644531 228.933594 283.574219 228.683594 C 283.429688 228.152344 283.285156 227.621094 283.140625 227.085938 C 282.792969 225.8125 282.445312 224.539062 282.097656 223.265625 C 281.382812 224.582031 280.664062 225.898438 279.945312 227.214844 C 279.625 227.800781 279.304688 228.390625 278.984375 228.980469 C 278.960938 229.027344 278.894531 229.042969 278.847656 229.015625 C 278.023438 228.519531 277.199219 228.023438 276.371094 227.53125 C 276.324219 227.503906 276.308594 227.441406 276.335938 227.390625 C 276.34375 227.382812 276.347656 227.371094 276.351562 227.363281 C 276.464844 227.128906 276.613281 226.90625 276.742188 226.679688 C 277.019531 226.199219 277.292969 225.722656 277.566406 225.242188 C 278.296875 223.964844 279.027344 222.683594 279.761719 221.402344 C 279.679688 221.421875 279.597656 221.4375 279.515625 221.457031 C 277.949219 221.789062 276.382812 222.121094 274.8125 222.457031 C 274.15625 222.59375 273.5 222.734375 272.84375 222.875 C 272.832031 222.875 272.824219 222.875 272.816406 222.875 C 272.773438 222.878906 272.730469 222.855469 272.71875 222.804688 C 272.558594 221.996094 272.402344 221.1875 272.242188 220.378906 C 272.230469 220.328125 272.253906 220.265625 272.3125 220.253906 C 272.324219 220.25 272.335938 220.25 272.34375 220.246094 C 272.589844 220.164062 272.859375 220.125 273.109375 220.066406 C 273.652344 219.941406 274.191406 219.8125 274.734375 219.6875 C 276.148438 219.355469 277.5625 219.027344 278.976562 218.695312 C 277.632812 217.824219 276.292969 216.949219 274.949219 216.078125 C 274.386719 215.714844 273.824219 215.347656 273.261719 214.984375 C 273.253906 214.976562 273.246094 214.96875 273.238281 214.960938 C 273.210938 214.933594 273.195312 214.890625 273.226562 214.84375 C 273.683594 214.160156 274.144531 213.476562 274.601562 212.792969 C 274.632812 212.746094 274.691406 212.726562 274.742188 212.753906 C 274.75 212.761719 274.761719 212.769531 274.769531 212.773438 C 275 212.890625 275.21875 213.050781 275.4375 213.1875 C 275.910156 213.480469 276.382812 213.773438 276.855469 214.066406 C 277.953125 214.75 279.050781 215.433594 280.152344 216.113281 C 279.773438 214.730469 279.398438 213.347656 279.019531 211.96875 C 278.84375 211.320312 278.667969 210.671875 278.492188 210.027344 C 278.484375 210 278.488281 209.980469 278.496094 209.960938 C 278.507812 209.933594 278.527344 209.910156 278.5625 209.902344 C 279.359375 209.695312 280.160156 209.492188 280.957031 209.285156 C 281.011719 209.273438 281.066406 209.304688 281.082031 209.355469 C 281.085938 209.367188 281.085938 209.378906 281.089844 209.390625 C 281.179688 209.632812 281.238281 209.894531 281.3125 210.144531 C 281.46875 210.675781 281.625 211.210938 281.785156 211.742188 C 282.179688 213.089844 282.578125 214.4375 282.972656 215.785156 C 283.765625 214.402344 284.554688 213.019531 285.34375 211.636719 C 285.675781 211.054688 286.011719 210.472656 286.34375 209.890625 C 286.359375 209.867188 286.378906 209.855469 286.398438 209.847656 C 286.402344 209.847656 286.402344 209.847656 286.402344 209.84375 C 286.40625 209.84375 286.410156 209.84375 286.414062 209.84375 C 286.433594 209.839844 286.457031 209.839844 286.480469 209.855469 C 287.191406 210.273438 287.898438 210.695312 288.609375 211.113281 C 288.65625 211.140625 288.671875 211.203125 288.644531 211.25 C 288.640625 211.261719 288.632812 211.269531 288.628906 211.28125 C 288.519531 211.515625 288.378906 211.742188 288.253906 211.972656 C 287.988281 212.460938 287.722656 212.949219 287.457031 213.4375 C 286.773438 214.6875 286.089844 215.9375 285.410156 217.191406 C 286.945312 216.832031 288.476562 216.472656 290.011719 216.113281 C 290.664062 215.960938 291.316406 215.808594 291.96875 215.65625 C 292.019531 215.644531 292.082031 215.671875 292.09375 215.726562 C 292.273438 216.671875 292.453125 217.617188 292.632812 218.558594 C 292.644531 218.609375 292.621094 218.671875 292.5625 218.683594 Z M 292.5625 218.683594 " fill-opacity="1" fill-rule="nonzero"/></g><g transform="matrix(1, 0, 0, 1, 103, 156)"><g clip-path="url(#8c557ae362)"><g clip-path="url(#9680f36b9d)"><g fill="#ffffff" fill-opacity="1"><g transform="translate(3.081105, 62.543245)"><g><path d="M 40.878906 -31.246094 L 45.496094 -26.273438 L 45.082031 -3.511719 L 37.972656 2.015625 L -1.324219 3 L -0.753906 -61.929688 L 37.136719 -60.011719 L 42.765625 -52.828125 L 43.742188 -31.027344 L 41.011719 -27.617188 L 38.84375 -29.355469 Z M 35.175781 -29.21875 L 38.746094 -33.6875 L 40.917969 -31.949219 L 38.140625 -31.824219 L 37.25 -51.691406 L 40.027344 -51.816406 L 37.839844 -50.101562 L 33.542969 -55.585938 L 35.730469 -57.300781 L 35.589844 -54.523438 L 1.859375 -56.230469 L 2 -59.003906 L 4.78125 -58.980469 L 4.261719 0.171875 L 1.484375 0.148438 L 1.414062 -2.628906 L 36.921875 -3.519531 L 36.988281 -0.742188 L 35.28125 -2.9375 L 40.621094 -7.085938 L 42.328125 -4.890625 L 39.546875 -4.941406 L 39.917969 -25.253906 L 42.699219 -25.203125 L 40.660156 -23.3125 L 36.804688 -27.464844 Z M 23.910156 -34.949219 L 23.464844 -45.921875 L 26.242188 -46.035156 L 25.8125 -43.285156 L 15.808594 -44.84375 L 16.234375 -47.589844 L 19.011719 -47.644531 L 19.234375 -36.601562 L 16.457031 -36.546875 L 16.855469 -39.296875 L 27.085938 -37.8125 L 26.6875 -35.0625 Z M 29.597656 -31.832031 L 13.722656 -34.132812 L 13.386719 -50.847656 L 28.925781 -48.429688 L 29.464844 -35.175781 Z M 27.867188 -21.273438 L 16.152344 -23.203125 L 16.605469 -25.945312 L 19.382812 -25.929688 L 19.308594 -11.917969 L 16.53125 -11.933594 L 16.097656 -14.679688 L 27.363281 -16.460938 L 27.796875 -13.714844 L 25.023438 -13.851562 L 25.539062 -24.15625 L 28.316406 -24.015625 Z M 31.21875 -26.355469 L 30.460938 -11.320312 L 13.734375 -8.679688 L 13.84375 -29.214844 L 28.769531 -26.761719 Z M 31.21875 -26.355469 "/></g></g></g></g><g fill="#38b6ff" fill-opacity="1"><g transform="translate(3.081105, 62.543245)"><g><path d="M 38.84375 -29.359375 L 42.703125 -25.203125 L 42.328125 -4.890625 L 36.984375 -0.734375 L 1.484375 0.140625 L 2 -59 L 35.734375 -57.296875 L 40.03125 -51.8125 L 40.921875 -31.953125 Z M 26.6875 -35.0625 L 26.234375 -46.03125 L 16.234375 -47.59375 L 16.453125 -36.546875 Z M 28.3125 -24.015625 L 16.609375 -25.9375 L 16.53125 -11.9375 L 27.796875 -13.71875 Z M 28.3125 -24.015625 "/></g></g></g></g></g><g transform="matrix(1, 0, 0, 1, 144, 162)"><g clip-path="url(#c5fa871e93)"><g clip-path="url(#6beeb044fd)"><g fill="#ffffff" fill-opacity="1"><g transform="translate(3.172622, 63.068294)"><g><path d="M 40.191406 -14.34375 L 42.273438 2.855469 L -1.320312 2.855469 L -0.753906 -62.402344 L 20.691406 -61.097656 L 19.828125 -14.179688 L 17.046875 -14.230469 L 17.078125 -17.011719 L 39.898438 -16.761719 Z M 34.671875 -13.675781 L 37.433594 -14.007812 L 37.402344 -11.230469 L 14.21875 -11.484375 L 15.085938 -58.535156 L 17.863281 -58.484375 L 17.695312 -55.710938 L 1.832031 -56.671875 L 2 -59.449219 L 4.78125 -59.425781 L 4.261719 0.0976562 L 1.484375 0.0742188 L 1.484375 -2.707031 L 39.136719 -2.707031 L 39.136719 0.0742188 L 36.378906 0.40625 Z M 34.671875 -13.675781 "/></g></g></g></g><g fill="#38b6ff" fill-opacity="1"><g transform="translate(3.172622, 63.068294)"><g><path d="M 37.4375 -14.015625 L 39.140625 0.078125 L 1.484375 0.078125 L 2 -59.453125 L 17.859375 -58.484375 L 17.046875 -14.234375 Z M 37.4375 -14.015625 "/></g></g></g></g></g><g transform="matrix(1, 0, 0, 1, 211, 164)"><g clip-path="url(#4106916f48)"><g fill="#ffffff" fill-opacity="1"><g transform="translate(6.329718, 61.922314)"><g><path d="M 41.460938 -3.402344 L 38.398438 12.554688 L -1.910156 2.226562 L 14.210938 -60.691406 L 52.96875 -49.425781 L 47.628906 -31.109375 L 26.601562 -36.761719 L 27.324219 -39.445312 L 30.019531 -38.753906 L 28.175781 -31.574219 L 25.484375 -32.265625 L 26.335938 -34.910156 L 40.5625 -30.339844 L 35.980469 -12.449219 L 21.363281 -17.144531 L 22.210938 -19.789062 L 24.898438 -19.078125 L 22.304688 -9.261719 L 19.617188 -9.972656 L 20.457031 -12.621094 L 41.925781 -5.832031 Z M 36 -4.449219 L 38.730469 -3.925781 L 37.890625 -1.273438 L 16.253906 -8.121094 L 20.273438 -23.332031 L 34.867188 -18.644531 L 34.019531 -16 L 31.324219 -16.6875 L 34.527344 -29.183594 L 37.21875 -28.492188 L 36.371094 -25.847656 L 22.140625 -30.417969 L 25.328125 -42.859375 L 46.445312 -37.1875 L 45.722656 -34.5 L 43.054688 -35.28125 L 46.851562 -48.308594 L 49.519531 -47.53125 L 48.746094 -44.863281 L 15.417969 -54.550781 L 16.191406 -57.21875 L 18.886719 -56.53125 L 4.164062 0.914062 L 1.472656 0.222656 L 2.164062 -2.46875 L 36.917969 6.4375 L 36.226562 9.128906 L 33.496094 8.605469 Z M 36 -4.449219 "/></g></g></g><g fill="#38b6ff" fill-opacity="1"><g transform="translate(6.329718, 61.922314)"><g><path d="M 38.734375 -3.921875 L 36.21875 9.125 L 1.46875 0.234375 L 16.1875 -57.21875 L 49.53125 -47.53125 L 45.71875 -34.484375 L 27.328125 -39.453125 L 25.484375 -32.265625 L 37.21875 -28.5 L 34.015625 -16 L 22.21875 -19.796875 L 19.625 -9.96875 Z M 38.734375 -3.921875 "/></g></g></g></g></g><g transform="matrix(1, 0, 0, 1, 181, 158)"><g clip-path="url(#8372d8fe48)"><g fill="#ffffff" fill-opacity="1"><g transform="translate(3.26319, 63.619979)"><g><path d="M 30.679688 -61.707031 L 46.40625 -62.164062 L 45.613281 -4.859375 L 41.792969 2.472656 L 6.53125 2.710938 L -0.382812 -1.269531 L -1.339844 -62.300781 L 15.316406 -62.300781 L 19.804688 -58.171875 L 20.71875 -14.214844 L 17.9375 -14.15625 L 18.128906 -16.929688 L 27.839844 -16.265625 L 27.648438 -13.492188 L 24.867188 -13.519531 L 25.324219 -57.234375 L 29.535156 -61.675781 Z M 30.84375 -56.152344 L 30.761719 -58.929688 L 32.78125 -57.019531 L 30.113281 -54.199219 L 28.09375 -56.113281 L 30.875 -56.082031 L 30.398438 -10.515625 L 15.210938 -11.558594 L 14.269531 -56.871094 L 17.046875 -56.929688 L 15.164062 -54.882812 L 12.347656 -57.476562 L 14.230469 -59.523438 L 14.230469 -56.742188 L 1.484375 -56.742188 L 1.484375 -59.523438 L 4.261719 -59.566406 L 5.152344 -2.933594 L 2.371094 -2.890625 L 3.757812 -5.300781 L 8.652344 -2.484375 L 7.265625 -0.0742188 L 7.246094 -2.855469 L 40.082031 -3.078125 L 40.101562 -0.296875 L 37.636719 -1.582031 L 40.378906 -6.84375 L 42.84375 -5.558594 L 40.066406 -5.597656 L 40.804688 -59.339844 L 43.585938 -59.300781 L 43.664062 -56.519531 Z M 30.84375 -56.152344 "/></g></g></g><g fill="#38b6ff" fill-opacity="1"><g transform="translate(3.26319, 63.619979)"><g><path d="M 30.765625 -58.921875 L 43.578125 -59.296875 L 42.84375 -5.5625 L 40.109375 -0.296875 L 7.265625 -0.078125 L 2.375 -2.890625 L 1.484375 -59.515625 L 14.234375 -59.515625 L 17.046875 -56.921875 L 17.9375 -14.15625 L 27.65625 -13.484375 L 28.09375 -56.109375 Z M 30.765625 -58.921875 "/></g></g></g></g></g><g transform="matrix(1, 0, 0, 1, 99, 210)"><g clip-path="url(#fe1c8b66e8)"><g fill="#ffffff" fill-opacity="1"><g transform="translate(2.020782, 56.448872)"><g><path d="M 26.546875 -30.125 C 26.921875 -27.976562 27.15625 -25.800781 27.25 -23.59375 C 27.34375 -21.394531 27.273438 -19.195312 27.046875 -17 C 26.859375 -15.070312 26.550781 -13.085938 26.125 -11.046875 C 25.707031 -9.015625 24.910156 -7.179688 23.734375 -5.546875 C 23.359375 -5.035156 22.957031 -4.53125 22.53125 -4.03125 C 22.113281 -3.539062 21.648438 -3.085938 21.140625 -2.671875 C 20.484375 -2.015625 19.742188 -1.460938 18.921875 -1.015625 C 18.109375 -0.566406 17.207031 -0.273438 16.21875 -0.140625 C 15.46875 -0.0859375 14.695312 -0.0859375 13.90625 -0.140625 C 12.738281 0.046875 11.546875 -0.046875 10.328125 -0.421875 C 9.109375 -0.796875 8.03125 -1.359375 7.09375 -2.109375 C 5.457031 -3.515625 4.238281 -5.210938 3.4375 -7.203125 C 2.644531 -9.191406 2.0625 -11.21875 1.6875 -13.28125 C 0.976562 -17.769531 0.972656 -22.257812 1.671875 -26.75 C 2.378906 -31.25 3.90625 -35.46875 6.25 -39.40625 C 6.25 -39.40625 6.296875 -39.453125 6.390625 -39.546875 C 7.085938 -41.410156 8.023438 -43.09375 9.203125 -44.59375 C 9.242188 -44.6875 9.285156 -44.722656 9.328125 -44.703125 C 9.378906 -44.679688 9.382812 -44.625 9.34375 -44.53125 C 9.15625 -44.195312 8.953125 -43.851562 8.734375 -43.5 C 8.523438 -43.15625 8.351562 -42.796875 8.21875 -42.421875 C 8.03125 -42.046875 7.863281 -41.660156 7.71875 -41.265625 C 7.582031 -40.867188 7.441406 -40.484375 7.296875 -40.109375 C 7.390625 -40.148438 7.492188 -40.160156 7.609375 -40.140625 C 7.734375 -40.117188 7.816406 -40.109375 7.859375 -40.109375 C 8.472656 -41.421875 9.203125 -42.566406 10.046875 -43.546875 C 10.890625 -44.523438 11.875 -45.132812 13 -45.375 C 13.46875 -45.5625 13.921875 -45.710938 14.359375 -45.828125 C 14.804688 -45.941406 15.265625 -45.976562 15.734375 -45.9375 C 16.242188 -46.03125 16.769531 -46.0625 17.3125 -46.03125 C 17.851562 -46.007812 18.332031 -45.882812 18.75 -45.65625 C 19.21875 -45.375 19.628906 -44.972656 19.984375 -44.453125 C 20.335938 -43.941406 20.628906 -43.453125 20.859375 -42.984375 C 21.140625 -43.078125 21.429688 -43.085938 21.734375 -43.015625 C 22.035156 -42.941406 22.28125 -42.742188 22.46875 -42.421875 C 22.988281 -41.484375 23.484375 -40.519531 23.953125 -39.53125 C 24.421875 -38.550781 24.816406 -37.546875 25.140625 -36.515625 C 25.472656 -35.492188 25.742188 -34.441406 25.953125 -33.359375 C 26.160156 -32.285156 26.359375 -31.207031 26.546875 -30.125 Z M 17.765625 -9.6875 C 18.378906 -11.332031 18.800781 -13.019531 19.03125 -14.75 C 19.269531 -16.476562 19.390625 -18.210938 19.390625 -19.953125 C 19.242188 -21.722656 19.097656 -23.488281 18.953125 -25.25 C 18.816406 -27.007812 18.609375 -28.753906 18.328125 -30.484375 C 18.234375 -30.992188 18.140625 -31.519531 18.046875 -32.0625 C 17.953125 -32.601562 17.859375 -33.109375 17.765625 -33.578125 C 17.578125 -34.234375 17.363281 -34.863281 17.125 -35.46875 C 16.894531 -36.070312 16.664062 -36.679688 16.4375 -37.296875 C 16.34375 -37.523438 16.234375 -37.78125 16.109375 -38.0625 C 15.992188 -38.34375 15.867188 -38.601562 15.734375 -38.84375 C 15.640625 -38.9375 15.546875 -38.984375 15.453125 -38.984375 L 15.09375 -38.984375 C 14.90625 -38.609375 14.726562 -38.207031 14.5625 -37.78125 C 14.40625 -37.363281 14.28125 -36.96875 14.1875 -36.59375 C 13.8125 -35.332031 13.472656 -34.054688 13.171875 -32.765625 C 12.867188 -31.472656 12.625 -30.148438 12.4375 -28.796875 C 12.101562 -26.222656 11.957031 -23.597656 12 -20.921875 C 12.050781 -18.253906 12.289062 -15.613281 12.71875 -13 C 12.851562 -12.195312 12.757812 -11.492188 12.4375 -10.890625 C 11.445312 -15.472656 11.054688 -20.210938 11.265625 -25.109375 C 11.484375 -30.003906 12.597656 -34.554688 14.609375 -38.765625 C 14.421875 -38.628906 14.242188 -38.429688 14.078125 -38.171875 C 13.921875 -37.910156 13.769531 -37.664062 13.625 -37.4375 C 12.96875 -36.125 12.40625 -34.765625 11.9375 -33.359375 C 11.46875 -31.953125 11.09375 -30.523438 10.8125 -29.078125 C 10.71875 -28.890625 10.671875 -28.796875 10.671875 -28.796875 C 10.535156 -28.003906 10.429688 -27.195312 10.359375 -26.375 C 10.285156 -25.550781 10.203125 -24.742188 10.109375 -23.953125 C 10.015625 -21.566406 10.097656 -19.191406 10.359375 -16.828125 C 10.617188 -14.460938 11.003906 -12.128906 11.515625 -9.828125 C 11.285156 -9.640625 11.03125 -9.523438 10.75 -9.484375 C 9.90625 -9.296875 9.082031 -9.4375 8.28125 -9.90625 C 8.65625 -9.15625 9.171875 -8.378906 9.828125 -7.578125 C 10.484375 -6.785156 11.242188 -6.191406 12.109375 -5.796875 C 12.984375 -5.398438 13.910156 -5.34375 14.890625 -5.625 C 15.679688 -5.90625 16.3125 -6.460938 16.78125 -7.296875 C 17.019531 -7.671875 17.21875 -8.054688 17.375 -8.453125 C 17.539062 -8.859375 17.671875 -9.269531 17.765625 -9.6875 Z M 17.765625 -9.6875 "/></g></g></g><g fill="#ffffff" fill-opacity="1"><g transform="translate(30.811286, 56.448872)"><g><path d="M 40.03125 -26.765625 L 39.828125 -25.28125 C 39.773438 -24.625 39.46875 -24.050781 38.90625 -23.5625 C 38.34375 -23.070312 37.78125 -22.847656 37.21875 -22.890625 C 35.582031 -22.984375 33.929688 -23.097656 32.265625 -23.234375 C 30.609375 -23.378906 28.960938 -23.523438 27.328125 -23.671875 C 29.242188 -20.816406 30.925781 -17.910156 32.375 -14.953125 C 33.3125 -12.941406 34.25 -10.847656 35.1875 -8.671875 C 36.125 -6.492188 36.453125 -4.257812 36.171875 -1.96875 C 36.078125 -1.21875 35.703125 -0.734375 35.046875 -0.515625 C 34.390625 -0.304688 33.757812 -0.320312 33.15625 -0.5625 C 32.820312 -0.507812 32.503906 -0.492188 32.203125 -0.515625 C 31.898438 -0.546875 31.582031 -0.628906 31.25 -0.765625 C 31.15625 -0.765625 31.109375 -0.789062 31.109375 -0.84375 C 30.828125 -0.5625 30.523438 -0.488281 30.203125 -0.625 C 29.585938 -2.269531 28.929688 -3.921875 28.234375 -5.578125 C 27.535156 -7.242188 26.832031 -8.875 26.125 -10.46875 C 25.894531 -11.070312 25.546875 -11.921875 25.078125 -13.015625 C 24.609375 -14.117188 24.113281 -15.269531 23.59375 -16.46875 C 23.082031 -17.664062 22.59375 -18.6875 22.125 -19.53125 C 21.75 -20.375 21.375 -21.097656 21 -21.703125 L 21 -21.765625 C 20.582031 -22.378906 20.1875 -23.035156 19.8125 -23.734375 C 18.914062 -23.785156 18 -23.832031 17.0625 -23.875 C 16.125 -23.925781 15.1875 -23.972656 14.25 -24.015625 C 14.4375 -22.421875 14.597656 -20.828125 14.734375 -19.234375 C 14.878906 -17.648438 14.976562 -16.035156 15.03125 -14.390625 C 15.125 -12.660156 15.226562 -10.914062 15.34375 -9.15625 C 15.457031 -7.40625 15.46875 -5.664062 15.375 -3.9375 C 15.425781 -3.75 15.453125 -3.546875 15.453125 -3.328125 C 15.453125 -3.117188 15.453125 -2.921875 15.453125 -2.734375 C 14.984375 -1.847656 14.445312 -1.144531 13.84375 -0.625 C 13.375 -0.25 12.832031 -0.0625 12.21875 -0.0625 C 11.613281 -0.0625 11.097656 -0.296875 10.671875 -0.765625 C 10.441406 -1.140625 10.300781 -1.515625 10.25 -1.890625 C 9.96875 -1.847656 9.6875 -1.929688 9.40625 -2.140625 C 9.125 -2.347656 8.984375 -2.640625 8.984375 -3.015625 C 8.796875 -3.765625 8.710938 -4.550781 8.734375 -5.375 C 8.765625 -6.195312 8.734375 -6.976562 8.640625 -7.71875 L 8 -12.359375 C 7.71875 -13.992188 7.4375 -15.644531 7.15625 -17.3125 C 6.882812 -18.976562 6.609375 -20.628906 6.328125 -22.265625 L 5.90625 -24.71875 C 5.851562 -24.71875 5.789062 -24.71875 5.71875 -24.71875 C 5.65625 -24.71875 5.578125 -24.71875 5.484375 -24.71875 C 5.484375 -25 5.34375 -25.164062 5.0625 -25.21875 C 4.6875 -25.3125 4.296875 -25.425781 3.890625 -25.5625 C 3.492188 -25.707031 3.109375 -25.847656 2.734375 -25.984375 L 4.359375 -26.203125 C 3.648438 -26.484375 2.945312 -26.859375 2.25 -27.328125 C 1.59375 -27.742188 1.226562 -28.335938 1.15625 -29.109375 C 1.082031 -29.878906 1.234375 -30.566406 1.609375 -31.171875 C 1.984375 -31.785156 2.523438 -32.09375 3.234375 -32.09375 C 3.460938 -32.144531 3.679688 -32.171875 3.890625 -32.171875 C 4.109375 -32.171875 4.3125 -32.171875 4.5 -32.171875 C 4.257812 -33.390625 4.007812 -34.601562 3.75 -35.8125 C 3.5 -37.03125 3.234375 -38.226562 2.953125 -39.40625 C 3.554688 -39.875 4.046875 -40.390625 4.421875 -40.953125 C 3.765625 -41.515625 3.285156 -42.238281 2.984375 -43.125 C 2.679688 -44.007812 2.71875 -44.851562 3.09375 -45.65625 C 3.5625 -46.539062 4.265625 -47.078125 5.203125 -47.265625 C 6.140625 -47.453125 7.144531 -47.472656 8.21875 -47.328125 C 9.289062 -47.191406 10.203125 -47.054688 10.953125 -46.921875 C 11.191406 -46.921875 11.40625 -46.828125 11.59375 -46.640625 C 11.820312 -46.546875 12.066406 -46.453125 12.328125 -46.359375 C 12.585938 -46.265625 12.832031 -46.171875 13.0625 -46.078125 C 13.113281 -46.078125 13.148438 -46.0625 13.171875 -46.03125 C 13.191406 -46.007812 13.226562 -46 13.28125 -46 C 17.164062 -44.78125 20.875 -43.082031 24.40625 -40.90625 C 27.9375 -38.726562 31.414062 -36.472656 34.84375 -34.140625 C 35.300781 -33.765625 35.625 -33.25 35.8125 -32.59375 C 36.332031 -32.257812 36.828125 -31.90625 37.296875 -31.53125 C 37.765625 -31.15625 38.234375 -30.78125 38.703125 -30.40625 C 39.828125 -29.5625 40.269531 -28.347656 40.03125 -26.765625 Z M 11.515625 -37.5 C 11.566406 -37.457031 11.59375 -37.390625 11.59375 -37.296875 C 11.59375 -37.203125 11.613281 -37.109375 11.65625 -37.015625 C 11.84375 -37.203125 12.066406 -37.28125 12.328125 -37.25 C 12.585938 -37.226562 12.738281 -37.054688 12.78125 -36.734375 C 12.96875 -35.984375 13.144531 -35.242188 13.3125 -34.515625 C 13.476562 -33.796875 13.628906 -33.0625 13.765625 -32.3125 C 13.953125 -32.257812 14.140625 -32.234375 14.328125 -32.234375 C 14.515625 -32.234375 14.703125 -32.210938 14.890625 -32.171875 C 14.984375 -32.585938 15.191406 -32.9375 15.515625 -33.21875 C 16.222656 -33.6875 16.9375 -33.828125 17.65625 -33.640625 C 18.382812 -33.453125 19.085938 -33.132812 19.765625 -32.6875 C 20.453125 -32.25 21.050781 -31.796875 21.5625 -31.328125 L 28.375 -30.484375 C 25.65625 -32.359375 22.890625 -34.007812 20.078125 -35.4375 C 17.273438 -36.863281 14.351562 -37.925781 11.3125 -38.625 Z M 16.5 -5.90625 C 16.363281 -8.800781 16.210938 -11.710938 16.046875 -14.640625 C 15.878906 -17.566406 15.585938 -20.457031 15.171875 -23.3125 L 15.734375 -23.3125 C 16.109375 -21.300781 16.390625 -19.242188 16.578125 -17.140625 C 16.765625 -15.035156 16.953125 -12.925781 17.140625 -10.8125 C 17.234375 -9.550781 17.1875 -8.625 17 -8.03125 C 16.8125 -7.445312 16.644531 -6.738281 16.5 -5.90625 Z M 16.5 -5.90625 "/></g></g></g><g fill="#ffffff" fill-opacity="1"><g transform="translate(71.539374, 56.448872)"><g><path d="M 39.546875 -3.515625 C 39.265625 -2.523438 38.703125 -1.804688 37.859375 -1.359375 C 37.015625 -0.921875 36.078125 -0.65625 35.046875 -0.5625 C 34.015625 -0.46875 33.054688 -0.394531 32.171875 -0.34375 C 30.710938 -0.300781 29.257812 -0.359375 27.8125 -0.515625 C 26.363281 -0.679688 24.910156 -0.789062 23.453125 -0.84375 C 21.441406 -0.9375 19.441406 -0.921875 17.453125 -0.796875 C 15.460938 -0.679688 13.484375 -0.507812 11.515625 -0.28125 C 11.003906 0.0390625 10.375 0.203125 9.625 0.203125 C 9.25 0.203125 8.988281 0.179688 8.84375 0.140625 C 8.375 0.179688 7.914062 0.25 7.46875 0.34375 C 7.03125 0.4375 6.601562 0.53125 6.1875 0.625 C 5.53125 0.71875 4.921875 0.625 4.359375 0.34375 C 3.796875 0.0703125 3.421875 -0.390625 3.234375 -1.046875 C 3.179688 -1.140625 3.15625 -1.257812 3.15625 -1.40625 C 2.875 -1.820312 2.734375 -2.289062 2.734375 -2.8125 C 2.734375 -3.601562 2.988281 -4.234375 3.5 -4.703125 C 4.019531 -5.171875 4.65625 -5.429688 5.40625 -5.484375 C 5.5 -5.484375 5.570312 -5.503906 5.625 -5.546875 C 5.570312 -7.648438 5.460938 -9.753906 5.296875 -11.859375 C 5.140625 -13.972656 4.96875 -16.082031 4.78125 -18.1875 C 4.03125 -18.425781 3.40625 -18.800781 2.90625 -19.3125 C 2.414062 -19.832031 2.171875 -20.535156 2.171875 -21.421875 C 2.171875 -22.117188 2.359375 -22.722656 2.734375 -23.234375 C 3.109375 -23.753906 3.601562 -24.15625 4.21875 -24.4375 C 4.21875 -24.488281 4.203125 -24.523438 4.171875 -24.546875 C 4.148438 -24.566406 4.140625 -24.578125 4.140625 -24.578125 C 4.003906 -26.359375 3.863281 -28.125 3.71875 -29.875 C 3.582031 -31.632812 3.421875 -33.378906 3.234375 -35.109375 C 2.898438 -35.296875 2.582031 -35.503906 2.28125 -35.734375 C 1.976562 -35.972656 1.6875 -36.1875 1.40625 -36.375 C 0.9375 -36.84375 0.46875 -37.378906 0 -37.984375 C -0.46875 -38.597656 -0.769531 -39.253906 -0.90625 -39.953125 C -1.050781 -40.660156 -0.890625 -41.34375 -0.421875 -42 C 0.273438 -42.9375 1.175781 -43.546875 2.28125 -43.828125 C 3.382812 -44.109375 4.472656 -44.269531 5.546875 -44.3125 C 7.742188 -44.3125 9.828125 -43.960938 11.796875 -43.265625 C 13.898438 -42.554688 15.960938 -41.664062 17.984375 -40.59375 C 18.585938 -40.269531 19.566406 -39.6875 20.921875 -38.84375 C 22.285156 -38 23.796875 -36.96875 25.453125 -35.75 C 27.117188 -34.53125 28.734375 -33.226562 30.296875 -31.84375 C 31.867188 -30.46875 33.179688 -29.085938 34.234375 -27.703125 C 35.285156 -26.328125 35.894531 -25.015625 36.0625 -23.765625 C 36.226562 -22.523438 35.726562 -21.460938 34.5625 -20.578125 C 34.09375 -20.203125 33.597656 -19.882812 33.078125 -19.625 C 32.566406 -19.375 32.003906 -19.269531 31.390625 -19.3125 C 30.597656 -19.40625 29.828125 -19.5 29.078125 -19.59375 C 28.328125 -19.6875 27.484375 -19.78125 26.546875 -19.875 L 23.171875 -20.09375 C 23.410156 -20 23.609375 -19.890625 23.765625 -19.765625 C 23.929688 -19.648438 24.109375 -19.546875 24.296875 -19.453125 C 25.140625 -18.941406 25.957031 -18.414062 26.75 -17.875 C 27.550781 -17.332031 28.328125 -16.757812 29.078125 -16.15625 C 32.304688 -13.625 35.1875 -10.859375 37.71875 -7.859375 C 38.375 -7.253906 38.898438 -6.597656 39.296875 -5.890625 C 39.691406 -5.191406 39.773438 -4.398438 39.546875 -3.515625 Z M 24.578125 -27.109375 C 24.160156 -27.578125 23.726562 -28.019531 23.28125 -28.4375 C 22.832031 -28.863281 22.375 -29.285156 21.90625 -29.703125 C 21.4375 -30.078125 21.023438 -30.425781 20.671875 -30.75 C 20.328125 -31.082031 19.96875 -31.367188 19.59375 -31.609375 C 18.613281 -32.265625 17.59375 -32.882812 16.53125 -33.46875 C 15.476562 -34.050781 14.488281 -34.507812 13.5625 -34.84375 C 13.226562 -34.9375 12.910156 -35.039062 12.609375 -35.15625 C 12.304688 -35.269531 11.988281 -35.347656 11.65625 -35.390625 L 10.53125 -35.609375 C 10.488281 -35.609375 10.453125 -35.609375 10.421875 -35.609375 C 10.398438 -35.609375 10.367188 -35.609375 10.328125 -35.609375 C 10.648438 -34.109375 10.914062 -32.597656 11.125 -31.078125 C 11.34375 -29.554688 11.546875 -28.023438 11.734375 -26.484375 C 14.023438 -26.804688 16.316406 -27.015625 18.609375 -27.109375 C 20.617188 -27.160156 22.609375 -27.160156 24.578125 -27.109375 Z M 28.375 -8.640625 C 27.300781 -9.578125 26.175781 -10.46875 25 -11.3125 C 23.832031 -12.15625 22.613281 -12.925781 21.34375 -13.625 C 20.132812 -14.28125 18.859375 -14.921875 17.515625 -15.546875 C 16.179688 -16.179688 14.835938 -16.6875 13.484375 -17.0625 C 13.296875 -17.15625 13.109375 -17.203125 12.921875 -17.203125 L 13.765625 -10.953125 C 13.859375 -10.253906 13.953125 -9.550781 14.046875 -8.84375 C 14.140625 -8.144531 14.207031 -7.445312 14.25 -6.75 C 15.84375 -6.925781 17.4375 -7.0625 19.03125 -7.15625 C 20.4375 -7.207031 21.84375 -7.195312 23.25 -7.125 C 24.65625 -7.050781 26.0625 -6.898438 27.46875 -6.671875 C 28.675781 -6.535156 29.890625 -6.328125 31.109375 -6.046875 C 30.691406 -6.515625 30.257812 -6.96875 29.8125 -7.40625 C 29.363281 -7.851562 28.882812 -8.265625 28.375 -8.640625 Z M 28.375 -8.640625 "/></g></g></g><g fill="#ffffff" fill-opacity="1"><g transform="translate(108.756417, 56.448872)"><g><path d="M 0.984375 -40.53125 C 0.835938 -41 0.878906 -41.460938 1.109375 -41.921875 C 1.347656 -42.390625 1.585938 -42.789062 1.828125 -43.125 C 2.296875 -43.820312 2.878906 -44.40625 3.578125 -44.875 C 3.765625 -45.0625 3.90625 -45.179688 4 -45.234375 C 4.9375 -45.890625 5.929688 -46.378906 6.984375 -46.703125 C 8.035156 -47.035156 9.101562 -47.0625 10.1875 -46.78125 C 11.125 -46.539062 11.941406 -46.148438 12.640625 -45.609375 C 13.347656 -45.078125 13.863281 -44.34375 14.1875 -43.40625 C 14.320312 -43.03125 14.296875 -42.675781 14.109375 -42.34375 C 13.929688 -42.019531 13.703125 -41.742188 13.421875 -41.515625 C 12.242188 -40.671875 11 -40.109375 9.6875 -39.828125 C 9.269531 -39.359375 8.707031 -39.015625 8 -38.796875 C 7.300781 -38.585938 6.625 -38.484375 5.96875 -38.484375 C 5.40625 -38.484375 4.851562 -38.53125 4.3125 -38.625 C 3.78125 -38.71875 3.253906 -38.859375 2.734375 -39.046875 C 2.410156 -39.140625 2.0625 -39.328125 1.6875 -39.609375 C 1.3125 -39.890625 1.078125 -40.195312 0.984375 -40.53125 Z M 5.6875 -38.84375 C 6.71875 -38.84375 7.394531 -38.945312 7.71875 -39.15625 C 8.050781 -39.363281 8.191406 -39.46875 8.140625 -39.46875 C 7.722656 -39.375 7.253906 -39.300781 6.734375 -39.25 C 6.222656 -39.207031 5.570312 -39.257812 4.78125 -39.40625 C 3.75 -39.632812 3.054688 -40.097656 2.703125 -40.796875 C 2.347656 -41.503906 2.335938 -42.253906 2.671875 -43.046875 C 2.335938 -42.671875 2.03125 -42.226562 1.75 -41.71875 C 1.613281 -41.394531 1.546875 -41.101562 1.546875 -40.84375 C 1.546875 -40.582031 1.6875 -40.335938 1.96875 -40.109375 C 2.4375 -39.734375 2.878906 -39.472656 3.296875 -39.328125 C 4.003906 -39.097656 4.800781 -38.9375 5.6875 -38.84375 Z M 13 -3.71875 C 12.664062 -3.15625 12.171875 -2.757812 11.515625 -2.53125 C 11.566406 -2.289062 11.546875 -2.039062 11.453125 -1.78125 C 11.359375 -1.53125 11.144531 -1.332031 10.8125 -1.1875 C 9.96875 -0.769531 9.066406 -0.65625 8.109375 -0.84375 C 7.148438 -1.03125 6.34375 -1.453125 5.6875 -2.109375 L 5.546875 -2.3125 C 5.222656 -2.457031 4.875 -2.671875 4.5 -2.953125 C 3.75 -3.648438 3.289062 -4.488281 3.125 -5.46875 C 2.957031 -6.457031 2.804688 -7.441406 2.671875 -8.421875 C 2.335938 -11.046875 2.085938 -13.65625 1.921875 -16.25 C 1.765625 -18.851562 1.707031 -21.46875 1.75 -24.09375 C 1.75 -25.351562 1.75 -26.625 1.75 -27.90625 C 1.75 -29.195312 1.820312 -30.476562 1.96875 -31.75 C 2.0625 -32.40625 2.222656 -33.046875 2.453125 -33.671875 C 2.691406 -34.304688 3.019531 -34.832031 3.4375 -35.25 C 3.53125 -35.394531 3.625 -35.523438 3.71875 -35.640625 C 3.8125 -35.753906 3.90625 -35.859375 4 -35.953125 C 4.519531 -36.285156 5.1875 -36.695312 6 -37.1875 C 6.820312 -37.675781 7.628906 -37.957031 8.421875 -38.03125 C 9.222656 -38.101562 9.8125 -37.671875 10.1875 -36.734375 C 10.414062 -36.773438 10.644531 -36.722656 10.875 -36.578125 C 11.113281 -36.441406 11.257812 -36.210938 11.3125 -35.890625 C 11.3125 -34.578125 11.285156 -33.285156 11.234375 -32.015625 C 11.191406 -30.753906 11.171875 -29.46875 11.171875 -28.15625 C 11.171875 -26.894531 11.191406 -25.617188 11.234375 -24.328125 C 11.285156 -23.046875 11.332031 -21.75 11.375 -20.4375 C 11.375 -20.207031 11.382812 -19.9375 11.40625 -19.625 C 11.4375 -19.320312 11.472656 -19.007812 11.515625 -18.6875 C 11.566406 -18.726562 11.625 -18.535156 11.6875 -18.109375 C 11.757812 -17.691406 11.816406 -17.285156 11.859375 -16.890625 C 11.910156 -16.492188 11.960938 -16.296875 12.015625 -16.296875 C 11.960938 -17.984375 11.925781 -19.851562 11.90625 -21.90625 C 11.882812 -23.96875 11.882812 -26.03125 11.90625 -28.09375 C 11.925781 -30.15625 11.984375 -32.003906 12.078125 -33.640625 C 12.078125 -33.734375 12.160156 -33.789062 12.328125 -33.8125 C 12.492188 -33.84375 12.578125 -33.832031 12.578125 -33.78125 C 12.429688 -28.769531 12.5 -23.769531 12.78125 -18.78125 C 13.0625 -13.800781 13.53125 -8.804688 14.1875 -3.796875 C 14.226562 -3.460938 14.0625 -3.285156 13.6875 -3.265625 C 13.320312 -3.242188 13.09375 -3.394531 13 -3.71875 Z M 5.203125 -32.375 C 4.679688 -30.78125 4.382812 -29.101562 4.3125 -27.34375 C 4.25 -25.59375 4.171875 -23.898438 4.078125 -22.265625 L 4.078125 -21.5625 C 4.078125 -21.507812 4.078125 -21.484375 4.078125 -21.484375 C 4.078125 -21.484375 4.078125 -21.460938 4.078125 -21.421875 C 4.171875 -20.578125 4.265625 -19.734375 4.359375 -18.890625 C 4.453125 -18.046875 4.546875 -17.203125 4.640625 -16.359375 L 4.84375 -16.359375 C 4.84375 -17.953125 4.832031 -19.53125 4.8125 -21.09375 C 4.789062 -22.664062 4.800781 -24.25 4.84375 -25.84375 C 4.84375 -27.0625 4.898438 -28.289062 5.015625 -29.53125 C 5.140625 -30.769531 5.390625 -31.953125 5.765625 -33.078125 L 5.6875 -33.078125 C 5.363281 -32.847656 5.203125 -32.613281 5.203125 -32.375 Z M 5.203125 -32.375 "/></g></g></g><g clip-path="url(#b4189728da)"><g fill="#ffffff" fill-opacity="1"><g transform="translate(122.730266, 56.448872)"><g><path d="M 40.109375 -41.375 C 40.015625 -41.09375 39.921875 -40.859375 39.828125 -40.671875 C 39.773438 -40.054688 39.65625 -39.441406 39.46875 -38.828125 C 39.28125 -38.222656 38.90625 -37.734375 38.34375 -37.359375 C 38.113281 -37.171875 37.765625 -37.03125 37.296875 -36.9375 C 37.109375 -36.75 36.941406 -36.65625 36.796875 -36.65625 C 35.023438 -36.332031 33.25 -36.003906 31.46875 -35.671875 C 29.6875 -35.347656 27.90625 -35.070312 26.125 -34.84375 C 26.125 -33.289062 26.113281 -31.742188 26.09375 -30.203125 C 26.070312 -28.660156 26.0625 -27.113281 26.0625 -25.5625 C 26.0625 -23.40625 26.070312 -21.257812 26.09375 -19.125 C 26.113281 -17 26.125 -14.863281 26.125 -12.71875 C 26.175781 -11.5 26.222656 -10.265625 26.265625 -9.015625 C 26.316406 -7.773438 26.363281 -6.550781 26.40625 -5.34375 C 26.363281 -4.5 26.234375 -3.6875 26.015625 -2.90625 C 25.804688 -2.132812 25.375 -1.492188 24.71875 -0.984375 L 24.71875 -1.125 C 24.769531 -1.632812 24.796875 -2.132812 24.796875 -2.625 C 24.796875 -3.125 24.816406 -3.609375 24.859375 -4.078125 L 24.859375 -6.75 C 24.722656 -6.132812 24.609375 -5.378906 24.515625 -4.484375 C 24.421875 -3.597656 24.253906 -2.804688 24.015625 -2.109375 C 23.785156 -1.359375 23.296875 -0.796875 22.546875 -0.421875 C 21.796875 -0.046875 21.046875 0.046875 20.296875 -0.140625 C 18.847656 -0.609375 17.890625 -1.53125 17.421875 -2.90625 C 16.953125 -4.289062 16.671875 -5.660156 16.578125 -7.015625 C 16.484375 -8.796875 16.445312 -10.597656 16.46875 -12.421875 C 16.488281 -14.253906 16.523438 -16.0625 16.578125 -17.84375 C 16.671875 -19.625 16.773438 -21.425781 16.890625 -23.25 C 17.003906 -25.070312 17.085938 -26.894531 17.140625 -28.71875 L 17.28125 -31.8125 L 17.28125 -34.0625 C 16.8125 -34.0625 16.351562 -34.0625 15.90625 -34.0625 C 15.457031 -34.0625 15 -34.0625 14.53125 -34.0625 C 12.613281 -34.0625 10.742188 -34.132812 8.921875 -34.28125 C 8.171875 -34.375 7.429688 -34.5 6.703125 -34.65625 C 5.984375 -34.820312 5.296875 -35.09375 4.640625 -35.46875 C 4.171875 -35.789062 3.734375 -36.1875 3.328125 -36.65625 C 2.929688 -37.125 2.617188 -37.640625 2.390625 -38.203125 C 1.679688 -38.578125 1.148438 -39.148438 0.796875 -39.921875 C 0.453125 -40.703125 0.375 -41.507812 0.5625 -42.34375 C 0.789062 -43.050781 1.222656 -43.6875 1.859375 -44.25 C 2.492188 -44.8125 3.1875 -45.046875 3.9375 -44.953125 C 5.851562 -44.765625 7.769531 -44.609375 9.6875 -44.484375 C 11.613281 -44.367188 13.535156 -44.3125 15.453125 -44.3125 C 15.453125 -44.363281 15.460938 -44.398438 15.484375 -44.421875 C 15.503906 -44.441406 15.515625 -44.476562 15.515625 -44.53125 C 11.722656 -44.757812 7.929688 -45.179688 4.140625 -45.796875 C 4.046875 -45.796875 4.007812 -45.863281 4.03125 -46 C 4.0625 -46.144531 4.125 -46.191406 4.21875 -46.140625 C 9.132812 -45.859375 14.050781 -45.765625 18.96875 -45.859375 C 23.882812 -45.953125 28.773438 -46.210938 33.640625 -46.640625 C 34.015625 -46.734375 34.390625 -46.789062 34.765625 -46.8125 C 35.140625 -46.832031 35.488281 -46.867188 35.8125 -46.921875 C 36 -46.921875 36.195312 -46.929688 36.40625 -46.953125 C 36.625 -46.972656 36.828125 -46.960938 37.015625 -46.921875 C 37.523438 -47.015625 38.050781 -47.082031 38.59375 -47.125 C 39.132812 -47.175781 39.660156 -47.222656 40.171875 -47.265625 C 40.503906 -47.316406 40.703125 -47.140625 40.765625 -46.734375 C 40.835938 -46.335938 40.6875 -46.09375 40.3125 -46 C 40.082031 -46 39.921875 -45.976562 39.828125 -45.9375 C 40.015625 -45.84375 40.15625 -45.75 40.25 -45.65625 C 41.039062 -45.1875 41.425781 -44.445312 41.40625 -43.4375 C 41.382812 -42.4375 40.953125 -41.75 40.109375 -41.375 Z M 8.921875 -35.953125 C 10.140625 -35.859375 11.378906 -35.859375 12.640625 -35.953125 C 11.234375 -36.097656 9.828125 -36.296875 8.421875 -36.546875 C 7.023438 -36.804688 5.644531 -37.148438 4.28125 -37.578125 C 4.84375 -37.054688 5.546875 -36.664062 6.390625 -36.40625 C 7.234375 -36.15625 8.078125 -36.003906 8.921875 -35.953125 Z M 8.921875 -35.953125 "/></g></g></g></g></g></g></svg>